<svg xmlns="http://www.w3.org/2000/svg" version="1.1" xmlns:xlink="http://www.w3.org/1999/xlink" xmlns:svgjs="http://svgjs.dev/svgjs" width="2000" height="499" viewBox="0 0 2000 499"><g transform="matrix(1,0,0,1,-1.2121212121212466,0.6200686516196754)"><svg viewBox="0 0 396 99" data-background-color="#ffffff" preserveAspectRatio="xMidYMid meet" height="499" width="2000" xmlns="http://www.w3.org/2000/svg" xmlns:xlink="http://www.w3.org/1999/xlink"><g id="tight-bounds" transform="matrix(1,0,0,1,0.2400000000000091,-0.12301963228526347)"><svg viewBox="0 0 395.52 99.24603926457056" height="99.24603926457056" width="395.52"><g><svg viewBox="0 0 549.015609694887 137.76199624959773" height="99.24603926457056" width="395.52"><g transform="matrix(1,0,0,1,0,19.03946547299072)"><svg viewBox="0 0 395.52 99.68306530361629" height="99.68306530361629" width="395.52"><g id="textblocktransform"><svg viewBox="0 0 395.52 99.68306530361629" height="99.68306530361629" width="395.52" id="textblock"><g><svg viewBox="0 0 395.52 66.646391184573" height="66.646391184573" width="395.52"><g transform="matrix(1,0,0,1,0,0)"><svg width="395.52" viewBox="2.1 -35.75 217.79 36.7" height="66.646391184573" data-palette-color="#000000"><path d="M18.5-35.55L34.9 0 2.1 0 18.5-35.55ZM18.5-31.15L5-1.85 32-1.85 18.5-31.15ZM43.95 0L42.1 0 42.1-34.8 43.95-34.8 43.95-24.95Q49.1-24.95 53.7-22.98 58.3-21 61.75-17.48 65.2-13.95 67.05-9.4L67.05-9.4 67.05-34.8 68.9-34.8 68.9 0 67.05 0Q67.05-6.25 63.95-11.58 60.85-16.9 55.52-20 50.2-23.1 43.95-23.1L43.95-23.1 43.95 0ZM78-21.25Q78-25.15 79.95-28.5 81.9-31.85 85.22-33.8 88.55-35.75 92.5-35.75L92.5-35.75Q96.45-35.75 99.77-33.8 103.09-31.85 105.05-28.5 107-25.15 107-21.25L107-21.25 107-13.55Q107-9.65 105.05-6.3 103.09-2.95 99.77-1 96.45 0.95 92.5 0.95L92.5 0.95Q88.55 0.95 85.22-1 81.9-2.95 79.95-6.3 78-9.65 78-13.55L78-13.55 78-21.25ZM87.09-13.55Q87.09-11.15 88.59-9.45 90.09-7.75 92.5-7.75L92.5-7.75Q94.84-7.75 96.34-9.45 97.84-11.15 97.84-13.55L97.84-13.55 97.84-21.3Q97.84-23.75 96.34-25.4 94.84-27.05 92.5-27.05L92.5-27.05Q90.09-27.05 88.59-25.4 87.09-23.75 87.09-21.3L87.09-21.3 87.09-13.55ZM129.49 0.75Q125.69 0.75 122.47-1.15 119.24-3.05 117.34-6.28 115.44-9.5 115.44-13.3L115.44-13.3 115.44-34.8 143.54-34.8 143.54-13.3Q143.54-9.5 141.64-6.28 139.74-3.05 136.52-1.15 133.29 0.75 129.49 0.75L129.49 0.75ZM172.04-12.35L180.89 0 154.14 0 154.14-34.8 167.69-34.8Q172.04-34.8 174.79-33.25L174.79-33.25Q177.49-31.75 178.99-29.15 180.49-26.55 180.49-23.4L180.49-23.4Q180.49-19.5 178.09-16.43 175.69-13.35 172.04-12.35L172.04-12.35ZM167.74-32.95L157.29-32.95 170.89-13.95Q174.24-14.65 176.44-17.3 178.64-19.95 178.64-23.4L178.64-23.4Q178.64-26.15 177.29-28.4 175.94-30.65 173.49-31.85L173.49-31.85Q171.29-32.95 167.74-32.95L167.74-32.95ZM168.84-13.8L155.99-31.75 155.99-13.8 168.84-13.8ZM155.99-11.95L155.99-1.85 177.39-1.85 170.09-12 168.54-11.95 155.99-11.95ZM203.49-35.55L219.89 0 187.09 0 203.49-35.55ZM203.49-31.15L189.99-1.85 216.99-1.85 203.49-31.15Z" opacity="1" transform="matrix(1,0,0,1,0,0)" fill="#000000" class="wordmark-text-0" data-fill-palette-color="primary" id="text-0"></path></svg></g></svg></g><g transform="matrix(1,0,0,1,163.310208,82.38000462986227)"><svg viewBox="0 0 232.209792 17.303060673754025" height="17.303060673754025" width="232.209792"><g transform="matrix(1,0,0,1,0,0)"><svg width="232.209792" viewBox="0.5 -37.6 512.6 38.2" height="17.303060673754025" data-palette-color="#000000"><path d="M16 0L11.25 0 11.25-30.8 0.5-30.8 0.5-35 26.75-35 26.75-30.8 16-30.8 16 0ZM35.75 0L31.25 0 31.25-26 35.6-26 35.6-20.35Q36.25-22 37.35-23.43 38.45-24.85 40.1-25.73 41.75-26.6 43.95-26.6L43.95-26.6Q44.7-26.6 45.45-26.53 46.2-26.45 46.7-26.3L46.7-26.3 45.35-21.65Q44.4-22.05 43.1-22.05L43.1-22.05Q41.25-22.05 39.57-21 37.9-19.95 36.82-17.75 35.75-15.55 35.75-12.15L35.75-12.15 35.75 0ZM59.65 0.6L59.65 0.6Q56.4 0.6 53.75-1.05 51.1-2.7 49.52-5.73 47.95-8.75 47.95-12.85L47.95-12.85Q47.95-16.75 49.52-19.85 51.1-22.95 53.87-24.78 56.65-26.6 60.25-26.6L60.25-26.6Q62.5-26.6 64.32-25.83 66.15-25.05 67.5-23.9L67.5-23.9 67.5-26 71.6-26 71.6-6.3Q71.6-4.4 72.52-3.83 73.45-3.25 74.55-3.25L74.55-3.25 73.6 0.25Q68.8 0.25 67.8-3.65L67.8-3.65Q66.65-2.05 64.67-0.73 62.7 0.6 59.65 0.6ZM60.65-3.4L60.65-3.4Q62.55-3.4 64.25-4.33 65.95-5.25 67.1-6.65L67.1-6.65 67.1-20.6Q65.75-21.55 64.12-22.13 62.5-22.7 60.7-22.7L60.7-22.7Q58.3-22.7 56.47-21.48 54.65-20.25 53.6-18.07 52.55-15.9 52.55-13L52.55-13Q52.55-10.2 53.6-8.03 54.65-5.85 56.5-4.63 58.35-3.4 60.65-3.4ZM85.04 0L80.54 0 80.54-26 84.89-26 84.89-21.65Q86.29-23.75 88.47-25.18 90.64-26.6 93.64-26.6L93.64-26.6Q98.04-26.6 100.22-23.95 102.39-21.3 102.39-16.95L102.39-16.95 102.39 0 97.89 0 97.89-16.45Q97.89-19.25 96.57-20.95 95.24-22.65 92.89-22.65L92.89-22.65Q90.59-22.65 88.54-21.03 86.49-19.4 85.04-17.2L85.04-17.2 85.04 0ZM117.14 0.6L117.14 0.6Q114.19 0.6 111.82-0.15 109.44-0.9 107.89-2.1L107.89-2.1 109.79-5.85Q111.09-4.75 113.07-4.03 115.04-3.3 117.29-3.3L117.29-3.3Q120.09-3.3 121.52-4.23 122.94-5.15 122.94-6.6L122.94-6.6Q122.94-7.65 122.42-8.45 121.89-9.25 120.49-10.03 119.09-10.8 116.44-11.7L116.44-11.7Q112.79-12.95 110.97-14.68 109.14-16.4 109.14-19.45L109.14-19.45Q109.14-22.45 111.77-24.53 114.39-26.6 119.04-26.6L119.04-26.6Q121.54-26.6 123.49-26.08 125.44-25.55 126.99-24.75L126.99-24.75 125.74-21.05Q124.39-21.85 122.67-22.35 120.94-22.85 118.84-22.85L118.84-22.85Q116.24-22.85 114.89-21.8 113.54-20.75 113.54-19.5L113.54-19.5Q113.54-18.3 114.59-17.45 115.64-16.6 118.69-15.6L118.69-15.6Q123.64-13.95 125.59-11.95 127.54-9.95 127.54-6.95L127.54-6.95Q127.54-3.45 124.72-1.43 121.89 0.6 117.14 0.6ZM138.54 0L134.04 0 134.04-21.15 130.04-21.15 130.04-25.05 134.04-25.05 134.04-28.1Q134.04-32.5 136.49-35.05 138.94-37.6 142.89-37.6L142.89-37.6Q144.94-37.6 146.49-37.13 148.04-36.65 149.44-35.95L149.44-35.95 148.09-32.15Q147.04-32.7 145.84-33.15 144.64-33.6 143.19-33.6L143.19-33.6Q141.09-33.6 139.81-32.27 138.54-30.95 138.54-28.4L138.54-28.4 138.54-25.05 146.24-25.05 146.24-21.15 138.54-21.15 138.54 0ZM161.14 0.6L161.14 0.6Q157.44 0.6 154.49-1.13 151.54-2.85 149.86-5.93 148.19-9 148.19-13L148.19-13Q148.19-17.2 149.89-20.25 151.59-23.3 154.54-24.95 157.49-26.6 161.14-26.6L161.14-26.6Q164.79-26.6 167.71-24.95 170.64-23.3 172.36-20.28 174.09-17.25 174.09-13.1L174.09-13.1Q174.09-8.95 172.39-5.88 170.69-2.8 167.76-1.1 164.84 0.6 161.14 0.6ZM161.14-3.4L161.14-3.4Q165.09-3.4 167.29-6.08 169.49-8.75 169.49-13L169.49-13Q169.49-15.6 168.39-17.78 167.29-19.95 165.41-21.28 163.54-22.6 161.14-22.6L161.14-22.6Q157.19-22.6 154.99-20 152.79-17.4 152.79-13.1L152.79-13.1Q152.79-10.5 153.89-8.28 154.99-6.05 156.86-4.73 158.74-3.4 161.14-3.4ZM184.58 0L180.08 0 180.08-26 184.43-26 184.43-20.35Q185.08-22 186.18-23.43 187.28-24.85 188.93-25.73 190.58-26.6 192.78-26.6L192.78-26.6Q193.53-26.6 194.28-26.53 195.03-26.45 195.53-26.3L195.53-26.3 194.18-21.65Q193.23-22.05 191.93-22.05L191.93-22.05Q190.08-22.05 188.41-21 186.73-19.95 185.66-17.75 184.58-15.55 184.58-12.15L184.58-12.15 184.58 0ZM204.53 0L200.03 0 200.03-26 204.38-26 204.38-21.65Q205.78-23.75 207.93-25.18 210.08-26.6 212.83-26.6L212.83-26.6Q215.93-26.6 217.91-25.1 219.88-23.6 220.68-21.1L220.68-21.1Q222.23-23.4 224.36-25 226.48-26.6 229.63-26.6L229.63-26.6Q233.88-26.6 235.96-23.93 238.03-21.25 238.03-16.95L238.03-16.95 238.03 0 233.53 0 233.53-16.6Q233.53-19.3 232.28-20.98 231.03-22.65 228.83-22.65L228.83-22.65Q226.58-22.65 224.66-20.98 222.73-19.3 221.28-17.05L221.28-17.05 221.28 0 216.78 0 216.78-16.6Q216.78-19.3 215.53-20.98 214.28-22.65 212.08-22.65L212.08-22.65Q209.88-22.65 207.93-21.03 205.98-19.4 204.53-17.2L204.53-17.2 204.53 0ZM255.73 0.6L255.73 0.6Q252.48 0.6 249.83-1.05 247.18-2.7 245.6-5.73 244.03-8.75 244.03-12.85L244.03-12.85Q244.03-16.75 245.6-19.85 247.18-22.95 249.95-24.78 252.73-26.6 256.33-26.6L256.33-26.6Q258.58-26.6 260.4-25.83 262.23-25.05 263.58-23.9L263.58-23.9 263.58-26 267.68-26 267.68-6.3Q267.68-4.4 268.6-3.83 269.53-3.25 270.63-3.25L270.63-3.25 269.68 0.25Q264.88 0.25 263.88-3.65L263.88-3.65Q262.73-2.05 260.75-0.73 258.78 0.6 255.73 0.6ZM256.73-3.4L256.73-3.4Q258.63-3.4 260.33-4.33 262.03-5.25 263.18-6.65L263.18-6.65 263.18-20.6Q261.83-21.55 260.2-22.13 258.58-22.7 256.78-22.7L256.78-22.7Q254.38-22.7 252.55-21.48 250.73-20.25 249.68-18.07 248.63-15.9 248.63-13L248.63-13Q248.63-10.2 249.68-8.03 250.73-5.85 252.58-4.63 254.43-3.4 256.73-3.4ZM281.13 0L276.63 0 276.63-26 280.98-26 280.98-21.65Q282.38-23.75 284.55-25.18 286.73-26.6 289.73-26.6L289.73-26.6Q294.13-26.6 296.3-23.95 298.48-21.3 298.48-16.95L298.48-16.95 298.48 0 293.98 0 293.98-16.45Q293.98-19.25 292.65-20.95 291.33-22.65 288.98-22.65L288.98-22.65Q286.68-22.65 284.63-21.03 282.58-19.4 281.13-17.2L281.13-17.2 281.13 0ZM316.07 0.6L316.07 0.6Q312.87 0.6 310.22-1.05 307.57-2.7 306.02-5.73 304.47-8.75 304.47-12.85L304.47-12.85Q304.47-16.8 306.05-19.9 307.62-23 310.25-24.8 312.87-26.6 316.02-26.6L316.02-26.6Q318.62-26.6 320.5-25.55 322.37-24.5 323.42-23.4L323.42-23.4 323.42-37 327.92-37 327.92-6.3Q327.92-4.4 328.85-3.83 329.77-3.25 330.87-3.25L330.87-3.25 329.92 0.25Q325.17 0.25 324.12-3.55L324.12-3.55Q323.02-2 321.05-0.7 319.07 0.6 316.07 0.6ZM317.07-3.4L317.07-3.4Q318.92-3.4 320.6-4.28 322.27-5.15 323.42-6.55L323.42-6.55 323.42-19.45Q322.47-20.65 320.77-21.68 319.07-22.7 317.02-22.7L317.02-22.7Q314.62-22.7 312.82-21.4 311.02-20.1 310.05-17.93 309.07-15.75 309.07-13L309.07-13Q309.07-10.25 310.12-8.08 311.17-5.9 313-4.65 314.82-3.4 317.07-3.4ZM347.32 0.6L347.32 0.6Q343.62 0.6 340.67-1.13 337.72-2.85 336.05-5.93 334.37-9 334.37-13L334.37-13Q334.37-17.2 336.07-20.25 337.77-23.3 340.72-24.95 343.67-26.6 347.32-26.6L347.32-26.6Q350.97-26.6 353.9-24.95 356.82-23.3 358.55-20.28 360.27-17.25 360.27-13.1L360.27-13.1Q360.27-8.95 358.57-5.88 356.87-2.8 353.95-1.1 351.02 0.6 347.32 0.6ZM347.32-3.4L347.32-3.4Q351.27-3.4 353.47-6.08 355.67-8.75 355.67-13L355.67-13Q355.67-15.6 354.57-17.78 353.47-19.95 351.6-21.28 349.72-22.6 347.32-22.6L347.32-22.6Q343.37-22.6 341.17-20 338.97-17.4 338.97-13.1L338.97-13.1Q338.97-10.5 340.07-8.28 341.17-6.05 343.05-4.73 344.92-3.4 347.32-3.4ZM386.52 0L381.77 0 381.77-35 386.52-35 386.52 0ZM404.86 0.6L404.86 0.6Q401.66 0.6 399.01-1.05 396.36-2.7 394.81-5.73 393.26-8.75 393.26-12.85L393.26-12.85Q393.26-16.8 394.84-19.9 396.41-23 399.04-24.8 401.66-26.6 404.81-26.6L404.81-26.6Q407.41-26.6 409.29-25.55 411.16-24.5 412.21-23.4L412.21-23.4 412.21-37 416.71-37 416.71-6.3Q416.71-4.4 417.64-3.83 418.56-3.25 419.66-3.25L419.66-3.25 418.71 0.25Q413.96 0.25 412.91-3.55L412.91-3.55Q411.81-2 409.84-0.7 407.86 0.6 404.86 0.6ZM405.86-3.4L405.86-3.4Q407.71-3.4 409.39-4.28 411.06-5.15 412.21-6.55L412.21-6.55 412.21-19.45Q411.26-20.65 409.56-21.68 407.86-22.7 405.81-22.7L405.81-22.7Q403.41-22.7 401.61-21.4 399.81-20.1 398.84-17.93 397.86-15.75 397.86-13L397.86-13Q397.86-10.25 398.91-8.08 399.96-5.9 401.79-4.65 403.61-3.4 405.86-3.4ZM435.56 0.6L435.56 0.6Q429.96 0.6 426.69-2.98 423.41-6.55 423.41-13L423.41-13Q423.41-16.9 424.89-19.98 426.36-23.05 429.01-24.83 431.66-26.6 435.16-26.6L435.16-26.6Q438.91-26.6 441.39-24.98 443.86-23.35 445.11-20.6 446.36-17.85 446.36-14.55L446.36-14.55Q446.36-12.8 446.21-11.15L446.21-11.15 428.01-11.15Q428.46-7.5 430.56-5.45 432.66-3.4 436.11-3.4L436.11-3.4Q438.36-3.4 440.16-3.88 441.96-4.35 443.61-5.1L443.61-5.1 444.66-1.25Q442.86-0.45 440.61 0.08 438.36 0.6 435.56 0.6ZM427.96-14.8L427.96-14.8 442.21-14.8Q442.21-18.6 440.31-20.65 438.41-22.7 435.06-22.7L435.06-22.7Q432.16-22.7 430.26-20.68 428.36-18.65 427.96-14.8ZM456.86 0L452.36 0 452.36-26 456.86-26 456.86 0ZM454.61-30.45L454.61-30.45Q453.31-30.45 452.38-31.4 451.46-32.35 451.46-33.6L451.46-33.6Q451.46-35.05 452.31-35.9 453.16-36.75 454.61-36.75L454.61-36.75Q455.91-36.75 456.83-35.83 457.76-34.9 457.76-33.6L457.76-33.6Q457.76-32.2 456.91-31.33 456.06-30.45 454.61-30.45ZM474.81 0.6L474.81 0.6Q471.56 0.6 468.91-1.05 466.25-2.7 464.68-5.73 463.11-8.75 463.11-12.85L463.11-12.85Q463.11-16.75 464.68-19.85 466.25-22.95 469.03-24.78 471.81-26.6 475.41-26.6L475.41-26.6Q477.66-26.6 479.48-25.83 481.31-25.05 482.66-23.9L482.66-23.9 482.66-26 486.75-26 486.75-6.3Q486.75-4.4 487.68-3.83 488.61-3.25 489.71-3.25L489.71-3.25 488.75 0.25Q483.96 0.25 482.96-3.65L482.96-3.65Q481.81-2.05 479.83-0.73 477.86 0.6 474.81 0.6ZM475.81-3.4L475.81-3.4Q477.71-3.4 479.41-4.33 481.11-5.25 482.25-6.65L482.25-6.65 482.25-20.6Q480.91-21.55 479.28-22.13 477.66-22.7 475.86-22.7L475.86-22.7Q473.46-22.7 471.63-21.48 469.81-20.25 468.75-18.07 467.71-15.9 467.71-13L467.71-13Q467.71-10.2 468.75-8.03 469.81-5.85 471.66-4.63 473.5-3.4 475.81-3.4ZM502.7 0.6L502.7 0.6Q499.75 0.6 497.38-0.15 495-0.9 493.45-2.1L493.45-2.1 495.35-5.85Q496.65-4.75 498.63-4.03 500.6-3.3 502.85-3.3L502.85-3.3Q505.65-3.3 507.08-4.23 508.5-5.15 508.5-6.6L508.5-6.6Q508.5-7.65 507.98-8.45 507.45-9.25 506.05-10.03 504.65-10.8 502-11.7L502-11.7Q498.35-12.95 496.53-14.68 494.7-16.4 494.7-19.45L494.7-19.45Q494.7-22.45 497.33-24.53 499.95-26.6 504.6-26.6L504.6-26.6Q507.1-26.6 509.05-26.08 511-25.55 512.55-24.75L512.55-24.75 511.3-21.05Q509.95-21.85 508.23-22.35 506.5-22.85 504.4-22.85L504.4-22.85Q501.8-22.85 500.45-21.8 499.1-20.75 499.1-19.5L499.1-19.5Q499.1-18.3 500.15-17.45 501.2-16.6 504.25-15.6L504.25-15.6Q509.2-13.95 511.15-11.95 513.1-9.95 513.1-6.95L513.1-6.95Q513.1-3.45 510.28-1.43 507.45 0.6 502.7 0.6Z" opacity="1" transform="matrix(1,0,0,1,0,0)" fill="#000000" class="slogan-text-1" data-fill-palette-color="secondary" id="text-1"></path></svg></g></svg></g></svg></g></svg></g><g transform="matrix(1,0,0,1,411.25361344528926,0)"><svg viewBox="0 0 137.76199624959773 137.76199624959773" height="137.76199624959773" width="137.76199624959773"><g data-palette-color="#000000"><rect width="37.654945641556715" height="137.76199624959773" fill="#000000" stroke="transparent" data-fill-palette-color="accent" x="0" fill-opacity="1"></rect><rect width="37.654945641556715" height="137.76199624959773" fill="#000000" stroke="transparent" data-fill-palette-color="accent" x="45.92066541653258" fill-opacity="0.75"></rect><rect width="37.654945641556715" height="137.76199624959773" fill="#000000" stroke="transparent" data-fill-palette-color="accent" x="91.84133083306516" fill-opacity="0.5"></rect></g></svg></g></svg></g><defs></defs></svg><rect width="395.52" height="99.24603926457056" fill="none" stroke="none" visibility="hidden"></rect></g></svg></g></svg>