<svg xmlns="http://www.w3.org/2000/svg" version="1.1" xmlns:xlink="http://www.w3.org/1999/xlink" xmlns:svgjs="http://svgjs.dev/svgjs" width="2000" height="439" viewBox="0 0 2000 439"><g transform="matrix(1,0,0,1,5.090647825267183,0.7210020315498866)"><svg viewBox="0 0 396 87" data-background-color="#1b84ff" preserveAspectRatio="xMidYMid meet" height="439" width="2000" xmlns="http://www.w3.org/2000/svg" xmlns:xlink="http://www.w3.org/1999/xlink"><g id="tight-bounds" transform="matrix(1,0,0,1,0.24000000000003752,-0.14288650739143804)"><svg viewBox="0 0 395.5199999999999 87.2857730147829" height="87.2857730147829" width="395.5199999999999"><g><svg viewBox="0 0 397.3713304243258 87.6943359375" height="87.2857730147829" width="395.5199999999999"><g><svg viewBox="0 0 397.3713304243258 87.6943359375" height="87.6943359375" width="397.3713304243258"><g id="textblocktransform"><svg viewBox="0 0 397.3713304243258 87.6943359375" height="87.6943359375" width="397.3713304243258" id="textblock"><g><svg viewBox="0 0 397.3713304243258 87.6943359375" height="87.6943359375" width="397.3713304243258"><g><svg><g></g><g></g></svg></g><g><svg><g></g><g><svg></svg></g></svg></g><g id="text-0"><svg viewBox="0 0 397.3713304243258 87.6943359375" height="87.6943359375" width="397.3713304243258"><g><svg xmlns="http://www.w3.org/2000/svg" xml:space="preserve" viewBox="6.708 5.556000000000001 86.583 88.88899999999998" x="0" y="0" height="87.6943359375" width="85.41932847120076" class="icon-dxe-0" data-fill-palette-color="accent" id="dxe-0"><path d="M89.584 62.689a3.71 3.71 0 0 0-3.707 3.707c0 2.044 1.663 3.707 3.707 3.707s3.707-1.663 3.707-3.707a3.71 3.71 0 0 0-3.707-3.707m0 5.669a1.966 1.966 0 0 1-1.963-1.962c0-1.083 0.882-1.963 1.963-1.963s1.963 0.88 1.963 1.963a1.965 1.965 0 0 1-1.963 1.962M51.64 39.389a5.71 5.71 0 0 0 5.704-5.703 5.71 5.71 0 0 0-5.704-5.704 5.71 5.71 0 0 0-5.702 5.704 5.71 5.71 0 0 0 5.702 5.703m0-8.722a3.023 3.023 0 0 1 3.02 3.02 3.02 3.02 0 0 1-3.02 3.018 3.02 3.02 0 0 1-3.018-3.018 3.02 3.02 0 0 1 3.018-3.02M37.248 21.693c4.449 0 8.069-3.619 8.069-8.068s-3.62-8.069-8.069-8.069-8.069 3.62-8.069 8.069 3.62 8.068 8.069 8.068M12.852 33.43a6.15 6.15 0 0 0-6.144 6.145 6.15 6.15 0 0 0 6.144 6.142 6.15 6.15 0 0 0 6.143-6.142 6.15 6.15 0 0 0-6.143-6.145M53.693 49.637c-0.973-3.887-3.216-5.267-4.843-5.267-1.069 0-1.947 0.566-2.289 1.477-0.099 0.261-0.186 0.535-0.275 0.808-0.196 0.608-0.491 1.527-0.782 1.527-0.117 0-0.475-0.066-1.223-0.692-1.96-1.631-2.45-3.705-3.522-8.249-0.235-0.997-0.496-2.103-0.805-3.34-1.358-5.433-5.767-9.529-10.252-9.529-2.114 0-4.142 0.91-5.862 2.631-2.131 2.13-2.856 4.882-2.042 7.748 1.227 4.311 5.724 8.29 10.695 9.459 6.356 1.496 7.608 3.751 9.681 7.488q0.346 0.627 0.733 1.305c1.502 2.63 1.69 5.425 1.004 6.608-0.282 0.484-0.627 0.54-0.863 0.54-0.396 0-0.904-0.188-1.468-0.544-1.89-1.194-2.185-2.568-2.557-4.307-0.364-1.704-0.778-3.635-2.761-5.618-2.056-2.057-4.255-3.144-6.359-3.144-1.626 0-3.12 0.635-4.32 1.835-1.936 1.937-4.463 6.062 0.386 11.933 1.602 1.938 3.796 2.486 5.917 3.018 3.727 0.931 7.247 1.81 7.648 10.486 0.616 13.385-10.953 16.965-11.446 17.11a0.768 0.768 0 0 0 0.079 1.49q0.186 0.035 0.42 0.035c3.478 0 14.669-6.314 20.838-14.954 6.568-9.189 5.712-24.082 4.268-29.854M78.48 55.312c-1.223 0-2.607 0.177-4.115 0.524-11.566 2.668-20.009 19.96-20.363 20.694a0.766 0.766 0 0 0 0.692 1.099 0.77 0.77 0 0 0 0.556-0.238c4.803-5.07 10.916-8.414 18.168-9.941l0.413-0.089c0.499-0.11 1.368-0.125 2.29-0.143 2.506-0.045 5.938-0.107 7.707-2.051 1.239-1.363 1.953-4.248 0.942-6.53-0.672-1.517-2.307-3.325-6.29-3.325" fill="#000000" data-fill-palette-color="accent"></path><path d="M31.167 78.69a1.236 1.236 0 0 0 2.352-0.612c-0.037-0.474-0.984-11.602-9.141-11.855l-0.287-0.004c-2.24 0-3.974 0.899-4.641 2.407-0.458 1.038-0.303 2.206 0.395 2.973 0.964 1.061 2.682 1.55 4.395 1.92l0.189 0.041q0.11 0.024 0.283 0.056c1.111 0.204 4.495 0.829 6.455 5.074m-6.407-7.585c-0.625-0.135-2.524-0.545-3.086-1.164-0.02-0.03-0.044-0.175 0.061-0.37 0.229-0.427 0.967-0.885 2.357-0.885l0.21 0.004c2.779 0.086 4.435 2.165 5.411 4.364q-1.948-1.386-4.552-1.867z" fill="#000000" data-fill-palette-color="accent"></path></svg></g><g transform="matrix(1,0,0,1,106.12343003370076,0)"><svg width="291.24790039062503" viewBox="1.88 -41.19 180.38 54.199999999999996" height="87.6943359375" data-palette-color="#ffffff"><g class="wordmark-text-0" data-fill-palette-color="primary"><path d="M32.79-10.74L32.79-10.74Q32.79-8.47 32.21-6.74 31.64-5 30.6-3.74 29.57-2.47 28.15-1.61 26.73-0.76 25.06-0.24 23.39 0.27 21.52 0.49 19.65 0.71 17.72 0.71L17.72 0.71Q15.19 0.71 13.04 0.33 10.89-0.05 9-0.87 7.1-1.68 5.36-2.98 3.61-4.27 1.88-6.13L1.88-6.13 6.86-11.18Q7.54-9.5 8.74-8.07 9.94-6.64 11.36-5.62 12.79-4.59 14.33-4 15.87-3.42 17.24-3.42L17.24-3.42Q18.85-3.42 20.26-3.65 21.68-3.88 22.73-4.42 23.78-4.96 24.38-5.85 24.98-6.74 24.98-8.08L24.98-8.08Q24.98-9.11 24.51-9.84 24.05-10.57 23.3-11.1 22.56-11.62 21.61-11.99 20.65-12.35 19.67-12.61 18.68-12.87 17.72-13.07 16.77-13.28 16.04-13.5L16.04-13.5Q14.6-13.92 13.04-14.39 11.47-14.87 9.96-15.48 8.45-16.09 7.09-16.88 5.74-17.68 4.71-18.76 3.69-19.85 3.08-21.28 2.47-22.71 2.47-24.56L2.47-24.56Q2.47-26.78 3.02-28.5 3.56-30.22 4.57-31.49 5.57-32.76 6.93-33.63 8.3-34.5 9.94-35.02 11.57-35.55 13.42-35.78 15.26-36.01 17.19-36.01L17.19-36.01Q19.82-36.01 21.98-35.52 24.15-35.03 25.98-34.13 27.81-33.23 29.33-31.97 30.86-30.71 32.2-29.17L32.2-29.17 27.22-24.12Q26.64-25.88 25.6-27.29 24.56-28.71 23.29-29.72 22.02-30.74 20.63-31.29 19.24-31.84 17.94-31.84L17.94-31.84Q16.26-31.84 14.84-31.6 13.43-31.37 12.41-30.85 11.4-30.32 10.84-29.43 10.28-28.54 10.28-27.22L10.28-27.22Q10.28-26.17 10.69-25.44 11.11-24.71 11.8-24.19 12.5-23.68 13.38-23.35 14.26-23.02 15.2-22.78 16.14-22.53 17.05-22.35 17.97-22.17 18.73-21.95L18.73-21.95Q20.19-21.53 21.8-21.07 23.41-20.61 24.98-19.98 26.54-19.36 27.95-18.55 29.37-17.75 30.44-16.64 31.52-15.53 32.15-14.07 32.79-12.62 32.79-10.74ZM68.26-14.16L68.26-14.16Q68.26-11.08 67.33-8.4 66.4-5.71 64.65-3.72 62.89-1.73 60.35-0.59 57.81 0.56 54.59 0.56L54.59 0.56Q52.12 0.56 50.06-0.4 48-1.37 46.53-3.37L46.53-3.37 46.53 13.01 38.28 13.01 38.28-28.2 41.45-28.2 45.11-22.07Q45.65-23.61 46.59-24.87 47.53-26.12 48.76-27.01 50-27.91 51.47-28.39 52.95-28.88 54.59-28.88L54.59-28.88Q57.81-28.88 60.35-27.73 62.89-26.59 64.65-24.6 66.4-22.61 67.33-19.92 68.26-17.24 68.26-14.16ZM59.89-14.16L59.89-14.16Q59.89-15.23 59.78-16.44 59.67-17.65 59.4-18.85 59.13-20.04 58.65-21.14 58.18-22.24 57.44-23.08 56.71-23.93 55.67-24.43 54.64-24.93 53.27-24.93L53.27-24.93Q51.85-24.93 50.82-24.44 49.78-23.95 49.03-23.11 48.29-22.27 47.81-21.18 47.34-20.09 47.07-18.9 46.8-17.7 46.69-16.48 46.58-15.26 46.58-14.16L46.58-14.16Q46.58-13.18 46.73-12 46.87-10.82 47.19-9.62 47.51-8.42 48.02-7.3 48.53-6.18 49.28-5.3 50.02-4.42 51.01-3.89 52-3.37 53.27-3.37L53.27-3.37Q54.66-3.37 55.69-3.87 56.71-4.37 57.44-5.21 58.18-6.05 58.65-7.15 59.13-8.25 59.4-9.45 59.67-10.64 59.78-11.87 59.89-13.09 59.89-14.16ZM81.81-32.62L81.81 0 73.55 0 73.55-41.19 76.73-41.19 81.81-32.62ZM117.08-28.2L117.08 0 108.83 0 108.83-3.37Q107.37-1.37 105.3-0.4 103.24 0.56 100.77 0.56L100.77 0.56Q97.55 0.56 95.01-0.59 92.47-1.73 90.72-3.72 88.96-5.71 88.03-8.4 87.1-11.08 87.1-14.16L87.1-14.16Q87.1-17.24 88.03-19.92 88.96-22.61 90.72-24.6 92.47-26.59 95.01-27.73 97.55-28.88 100.77-28.88L100.77-28.88Q102.41-28.88 103.89-28.39 105.36-27.91 106.6-27.01 107.83-26.12 108.77-24.87 109.71-23.61 110.25-22.07L110.25-22.07 113.91-28.2 117.08-28.2ZM108.78-14.16L108.78-14.16Q108.78-15.26 108.67-16.48 108.56-17.7 108.29-18.9 108.02-20.09 107.55-21.18 107.07-22.27 106.33-23.11 105.58-23.95 104.53-24.44 103.48-24.93 102.09-24.93L102.09-24.93Q100.7-24.93 99.68-24.43 98.65-23.93 97.92-23.08 97.18-22.24 96.71-21.14 96.23-20.04 95.96-18.85 95.7-17.65 95.59-16.44 95.48-15.23 95.48-14.16L95.48-14.16Q95.48-13.09 95.59-11.87 95.7-10.64 95.96-9.45 96.23-8.25 96.71-7.15 97.18-6.05 97.92-5.21 98.65-4.37 99.68-3.87 100.7-3.37 102.09-3.37L102.09-3.37Q103.36-3.37 104.35-3.89 105.34-4.42 106.08-5.3 106.83-6.18 107.34-7.3 107.85-8.42 108.17-9.62 108.49-10.82 108.64-12 108.78-13.18 108.78-14.16ZM148.23-9.01L148.23-9.01Q148.23-7.15 147.7-5.71 147.16-4.27 146.23-3.21 145.3-2.15 144.03-1.43 142.76-0.71 141.31-0.27 139.86 0.17 138.27 0.37 136.68 0.56 135.12 0.56L135.12 0.56Q133.02 0.56 131.41 0.29 129.8 0.02 128.33-0.57 126.87-1.17 125.42-2.12 123.96-3.08 122.18-4.44L122.18-4.44 126.99-8.37Q127.65-7.13 128.74-6.12 129.82-5.1 131-4.37 132.17-3.64 133.27-3.25 134.37-2.86 135.05-2.86L135.05-2.86Q135.61-2.86 136.32-2.89 137.03-2.93 137.76-3.04 138.49-3.15 139.2-3.37 139.91-3.59 140.46-3.97 141.01-4.35 141.34-4.92 141.66-5.49 141.66-6.3L141.66-6.3Q141.66-7.13 141.24-7.75 140.81-8.37 140.13-8.84 139.44-9.3 138.56-9.62 137.69-9.94 136.79-10.18 135.9-10.42 135.07-10.61 134.24-10.79 133.63-10.96L133.63-10.96Q132.51-11.28 131.26-11.61 130.02-11.94 128.8-12.37 127.58-12.79 126.47-13.38 125.36-13.96 124.51-14.78 123.67-15.6 123.17-16.71 122.67-17.82 122.67-19.31L122.67-19.31Q122.67-22.05 123.76-23.89 124.84-25.73 126.63-26.84 128.41-27.95 130.68-28.42 132.95-28.88 135.29-28.88L135.29-28.88Q136.9-28.88 138.69-28.55 140.47-28.22 142.15-27.58 143.84-26.93 145.3-26 146.77-25.07 147.74-23.88L147.74-23.88 142.93-19.92Q142.4-21.39 141.53-22.44 140.66-23.49 139.65-24.16 138.64-24.83 137.58-25.15 136.51-25.46 135.61-25.46L135.61-25.46Q134.73-25.46 133.63-25.39 132.53-25.32 131.57-24.98 130.61-24.63 129.93-23.94 129.26-23.24 129.26-22.02L129.26-22.02Q129.26-21.14 129.67-20.52 130.07-19.9 130.73-19.45 131.39-18.99 132.23-18.69 133.07-18.38 133.95-18.15 134.83-17.92 135.66-17.75 136.49-17.58 137.15-17.38L137.15-17.38Q138.27-17.07 139.53-16.74 140.79-16.41 142.01-15.98 143.23-15.55 144.36-14.98 145.5-14.4 146.35-13.57 147.21-12.74 147.72-11.63 148.23-10.52 148.23-9.01ZM182.26-16.16L182.26-16.16Q182.26-13.31 181.57-10.21 180.87-7.1 179.63-4.13 178.38-1.15 176.65 1.48 174.91 4.1 172.84 6.01L172.84 6.01 169.74 4.32Q170.4 3.1 170.98 1.59 171.57 0.07 172.05-1.62 172.52-3.32 172.9-5.13 173.28-6.93 173.53-8.7 173.79-10.47 173.93-12.15 174.06-13.82 174.06-15.26L174.06-15.26Q174.06-16.21 173.99-17.3 173.91-18.38 173.68-19.47 173.45-20.56 173.06-21.56 172.67-22.56 172.02-23.32 171.37-24.07 170.46-24.54 169.54-25 168.3-25L168.3-25Q167.08-25 166.13-24.45 165.17-23.9 164.44-23.01 163.71-22.12 163.18-20.97 162.66-19.82 162.33-18.62 162-17.41 161.85-16.24 161.71-15.06 161.71-14.14L161.71-14.14 161.71 0 153.43 0 153.43-38.57 161.68-38.57 161.68-24.05Q163.27-26.37 165.58-27.62 167.88-28.88 170.69-28.88L170.69-28.88Q173.62-28.88 175.79-27.93 177.97-26.98 179.41-25.28 180.85-23.58 181.55-21.25 182.26-18.92 182.26-16.16Z" fill="#000000" data-fill-palette-color="primary"></path></g></svg></g></svg></g></svg></g></svg></g></svg></g></svg></g><defs></defs></svg><rect width="395.5199999999999" height="87.2857730147829" fill="none" stroke="none" visibility="hidden"></rect></g></svg></g></svg>