<svg xmlns="http://www.w3.org/2000/svg" version="1.1" xmlns:xlink="http://www.w3.org/1999/xlink" xmlns:svgjs="http://svgjs.dev/svgjs" width="2000" height="641" viewBox="0 0 2000 641"><g transform="matrix(1,0,0,1,-1.2121212121212466,0.1450186622350884)"><svg viewBox="0 0 396 127" data-background-color="#3f5efb" preserveAspectRatio="xMidYMid meet" height="641" width="2000" xmlns="http://www.w3.org/2000/svg" xmlns:xlink="http://www.w3.org/1999/xlink"><g id="tight-bounds" transform="matrix(1,0,0,1,0.2400000000000091,-0.028732246651884452)"><svg viewBox="0 0 395.52 127.05746449330377" height="127.05746449330377" width="395.52"><g><svg viewBox="0 0 671.7846061122564 215.8051394069986" height="127.05746449330377" width="395.52"><g transform="matrix(1,0,0,1,0,20.021947637610197)"><svg viewBox="0 0 395.52 175.7612441317782" height="175.7612441317782" width="395.52"><g id="textblocktransform"><svg viewBox="0 0 395.52 175.7612441317782" height="175.7612441317782" width="395.52" id="textblock"><g><svg viewBox="0 0 395.52 128.050853761623" height="128.050853761623" width="395.52"><g transform="matrix(1,0,0,1,0,0)"><svg width="395.52" viewBox="-1.85 -37.6 118.28999999999999 38.300000000000004" height="128.050853761623" data-palette-color="#ffffff"><g class="wordmark-text-0" data-fill-palette-color="primary" id="text-0"><path d="M-0.4 0.7L-0.4 0.7Q-1.05 0.7-1.45 0.1-1.85-0.5-1.85-1.45L-1.85-1.45Q-1.85-3.6-0.05-3.6L-0.05-3.6Q1.55-3.6 2.83-5.23 4.1-6.85 5.05-10.65L5.05-10.65 6.55-16.5Q8.65-24.3 14.55-24.3L14.55-24.3Q17.2-24.3 19.07-22.23 20.95-20.15 20.95-16.6L20.95-16.6 20.95-9.05Q20.95-3.6 24.15-3.6L24.15-3.6Q26.2-3.6 27.95-5.25 29.7-6.9 30.78-9.58 31.85-12.25 31.85-15.3L31.85-15.3Q31.85-15.7 31.85-16.1L31.85-16.1Q29.5-17 28.2-18.5L28.2-18.5Q28.35-20.1 29.05-21.43 29.75-22.75 30.78-23.53 31.8-24.3 32.75-24.3L32.75-24.3Q34.4-24.3 35.43-21.88 36.45-19.45 36.45-15.7L36.45-15.7Q36.45-11.05 34.77-7.33 33.1-3.6 30.2-1.45 27.3 0.7 23.65 0.7L23.65 0.7Q20.3 0.7 18.35-1.68 16.4-4.05 16.4-8.1L16.4-8.1 16.4-15.95Q16.4-18.15 15.75-19.07 15.1-20 14.15-20L14.15-20Q13.1-20 12.35-19.05 11.6-18.1 11.05-16L11.05-16 9.2-8.8Q7.9-3.85 5.6-1.58 3.3 0.7-0.4 0.7ZM40-3.6L40-3.6Q41.05-3.6 42.25-4.25 43.45-4.9 44.5-6.25L44.5-6.25Q45.75-7.95 46.32-10.15 46.9-12.35 47.05-14.6L47.05-14.6 47.05-23.6Q47.5-23.75 48.1-23.85 48.7-23.95 49.35-23.95L49.35-23.95Q50.5-23.95 51.6-23.6L51.6-23.6 51.6-9.2Q51.6-6.55 52.42-5.08 53.25-3.6 55.2-3.6L55.2-3.6Q56.05-3.6 56.35-2.9 56.65-2.2 56.65-1.4L56.65-1.4Q56.65-0.6 56.22 0.05 55.8 0.7 54.85 0.7L54.85 0.7Q49.65 0.7 48.1-4.2L48.1-4.2Q47.4-3.05 46.6-2.25L46.6-2.25Q45.25-0.9 43.47-0.1 41.7 0.7 39.65 0.7L39.65 0.7Q38.95 0.7 38.57 0.03 38.2-0.65 38.2-1.45L38.2-1.45Q38.2-2.3 38.62-2.95 39.05-3.6 40-3.6ZM49.4-30.8L49.4-30.8Q48-30.8 47-31.8 46-32.8 46-34.2L46-34.2Q46-35.7 46.97-36.65 47.95-37.6 49.4-37.6L49.4-37.6Q50.9-37.6 51.85-36.65 52.8-35.7 52.8-34.2L52.8-34.2Q52.8-32.75 51.82-31.78 50.85-30.8 49.4-30.8ZM54.85 0.7L54.85 0.7Q54.2 0.7 53.8 0.1 53.4-0.5 53.4-1.45L53.4-1.45Q53.4-3.6 55.2-3.6L55.2-3.6Q56.8-3.6 58.07-5.23 59.35-6.85 60.3-10.65L60.3-10.65 61.8-16.5Q63.9-24.3 69.8-24.3L69.8-24.3Q72.05-24.3 73.6-22.98 75.15-21.65 75.75-19.4L75.75-19.4Q77.15-21.75 79.35-23.03 81.55-24.3 84.25-24.3L84.25-24.3Q88.15-24.3 90.27-21.75 92.4-19.2 92.4-14.6L92.4-14.6 92.4-8.75Q92.4-6 93.12-4.8 93.85-3.6 95.45-3.6L95.45-3.6Q96.15-3.6 96.52-3 96.9-2.4 96.9-1.4L96.9-1.4Q96.9-0.6 96.47 0.05 96.05 0.7 95.1 0.7L95.1 0.7Q87.85 0.7 87.85-8.2L87.85-8.2 87.85-14.6Q87.85-20 83.6-20L83.6-20Q81.4-20 79.72-18.25 78.05-16.5 77.12-13.4 76.2-10.3 76.2-6.2L76.2-6.2 76.2 0Q75.7 0.15 75.1 0.25 74.5 0.35 73.95 0.35L73.95 0.35Q72.75 0.35 71.7 0L71.7 0 71.7-15.95Q71.7-17.9 71.2-18.95 70.7-20 69.4-20L69.4-20Q68.35-20 67.6-19.05 66.85-18.1 66.3-16L66.3-16 64.45-8.8Q63.15-3.85 60.85-1.58 58.55 0.7 54.85 0.7ZM95.09 0.7L95.09 0.7Q94.44 0.7 94.04 0.1 93.64-0.5 93.64-1.45L93.64-1.45Q93.64-3.6 95.44-3.6L95.44-3.6Q96.89-3.6 98.39-4.08 99.89-4.55 101.89-5.7L101.89-5.7Q99.94-9.1 99.94-13.7L99.94-13.7Q99.94-16.8 101.09-19.18 102.24-21.55 104.29-22.93 106.34-24.3 108.94-24.3L108.94-24.3Q111.14-24.3 112.84-23.28 114.54-22.25 115.49-20.45 116.44-18.65 116.44-16.3L116.44-16.3Q116.44-13.1 114.57-10.45 112.69-7.8 108.24-4.7L108.24-4.7Q109.84-3.55 112.54-3.55L112.54-3.55Q113.24-3.55 113.64-2.95 114.04-2.35 114.04-1.35L114.04-1.35Q114.04-0.4 113.59 0.15 113.14 0.7 112.29 0.7L112.29 0.7Q109.89 0.7 107.79-0.1 105.69-0.9 104.29-2.3L104.29-2.3Q99.49 0.7 95.09 0.7ZM104.29-14.1L104.29-14.1Q104.29-10.15 105.69-7.8L105.69-7.8Q108.94-10.05 110.52-12.2 112.09-14.35 112.09-16.3L112.09-16.3Q112.09-18.1 111.22-19.13 110.34-20.15 108.79-20.15L108.79-20.15Q106.84-20.15 105.57-18.4 104.29-16.65 104.29-14.1Z" fill="#000000" data-fill-palette-color="primary"></path></g></svg></g></svg></g><g transform="matrix(1,0,0,1,163.310208,158.2805871142519)"><svg viewBox="0 0 232.209792 17.480657017526287" height="17.480657017526287" width="232.209792"><g transform="matrix(1,0,0,1,0,0)"><svg width="232.209792" viewBox="2 -35.9 605.64 45.1" height="17.480657017526287" data-palette-color="#ffffff"><path d="M18 0.2L18 0.2Q13.25 0.2 9.65-1.63 6.05-3.45 4.03-7.1 2-10.75 2-16.15L2-16.15Q2-23.45 5.9-27.73 9.8-32 17.5-32L17.5-32Q20.2-32 22.88-31.4 25.55-30.8 27.85-29.45L27.85-29.45 25.6-23.15Q24.4-23.9 22.6-24.33 20.8-24.75 19.15-24.75L19.15-24.75Q15.25-24.75 13.13-22.38 11-20 11-16L11-16Q11-11.6 13.43-9.33 15.85-7.05 19.7-7.05L19.7-7.05Q21.85-7.05 23.75-7.7 25.65-8.35 27.05-9.3L27.05-9.3 29.65-3.7Q27.8-2.3 25.05-1.05 22.3 0.2 18 0.2ZM46.15 0.45L46.15 0.45Q42 0.45 38.97-1.2 35.95-2.85 34.3-5.9 32.65-8.95 32.65-13.1L32.65-13.1Q32.65-19.35 36.27-22.73 39.9-26.1 46.05-26.1L46.05-26.1Q52.2-26.1 55.85-22.7 59.5-19.3 59.5-13L59.5-13Q59.5-8.9 57.9-5.88 56.3-2.85 53.3-1.2 50.3 0.45 46.15 0.45ZM46.15-6.25L46.15-6.25Q48.65-6.25 49.97-8.1 51.3-9.95 51.3-13L51.3-13Q51.3-16.25 49.87-17.88 48.45-19.5 46.05-19.5L46.05-19.5Q43.65-19.5 42.22-17.88 40.8-16.25 40.8-13.05L40.8-13.05Q40.8-9.95 42.25-8.1 43.7-6.25 46.15-6.25ZM89.65-1.8L83.45 3.45 79.4-0.6 79.4-14.2Q79.4-16.25 78.3-17.35 77.2-18.45 75.09-18.45L75.09-18.45Q74.2-18.45 73.4-18.25 72.59-18.05 72-17.7L72-17.7 72 0 64 0 64-21.55Q65.9-23.45 69.17-24.63 72.45-25.8 76.3-25.8L76.3-25.8Q81.84-25.8 84.62-23.28 87.4-20.75 87.4-16.45L87.4-16.45 87.4-4.35 89.65-1.8ZM106.29 0.3L106.29 0.3Q102.29 0.3 99.22-1.3 96.14-2.9 94.39-5.95 92.64-9 92.64-13.3L92.64-13.3Q92.64-19.35 96.02-22.63 99.39-25.9 105.09-25.9L105.09-25.9Q109.09-25.9 111.62-24.38 114.14-22.85 115.34-20.3 116.54-17.75 116.54-14.65L116.54-14.65Q116.54-13.55 116.42-12.38 116.29-11.2 116.04-10.05L116.04-10.05 100.49-10.05Q100.74-7.5 102.62-6.6 104.49-5.7 106.94-5.7L106.94-5.7Q108.99-5.7 110.69-6.18 112.39-6.65 113.44-7.45L113.44-7.45 115.59-2.45Q114.34-1.4 111.87-0.55 109.39 0.3 106.29 0.3ZM100.49-15.1L100.49-15.1 109.54-15.1Q109.54-17.1 108.42-18.48 107.29-19.85 105.04-19.85L105.04-19.85Q102.89-19.85 101.69-18.55 100.49-17.25 100.49-15.1ZM134.04 0.2L134.04 0.2Q130.09 0.2 127.04-1.4 123.99-3 122.27-6.05 120.54-9.1 120.54-13.45L120.54-13.45Q120.54-19.35 123.84-22.8 127.14-26.25 133.39-26.25L133.39-26.25Q135.74-26.25 138.02-25.73 140.29-25.2 142.14-24.1L142.14-24.1 140.19-18.45Q138.19-19.65 135.39-19.65L135.39-19.65Q132.19-19.65 130.52-18.05 128.84-16.45 128.84-13.45L128.84-13.45Q128.84-10.1 130.79-8.25 132.74-6.4 135.94-6.4L135.94-6.4Q137.39-6.4 138.82-6.8 140.24-7.2 141.24-7.95L141.24-7.95 143.44-3Q141.94-1.8 139.69-0.8 137.44 0.2 134.04 0.2ZM161.04 0.35L161.04 0.35Q158.14 0.35 155.89-0.6 153.64-1.55 152.36-3.65 151.09-5.75 151.09-9.2L151.09-9.2 151.09-18.8 146.94-18.8 146.94-24.75 151.29-24.75 151.29-31.8 159.29-31.8 159.29-24.75 166.09-24.75 166.09-18.75 159.34-18.75 159.34-9.45Q159.34-7.55 160.26-6.85 161.19-6.15 162.49-6.15L162.49-6.15Q163.29-6.15 164.26-6.33 165.24-6.5 165.79-6.85L165.79-6.85 167.14-0.95Q165.89-0.25 164.26 0.05 162.64 0.35 161.04 0.35ZM195.19-2.55L188.99 2.6 185.84-1.2Q183.49 0.25 179.99 0.25L179.99 0.25Q175.34 0.25 172.74-2.18 170.14-4.6 170.14-8.55L170.14-8.55Q170.14-12.15 172.34-14.13 174.54-16.1 178.74-16.1L178.74-16.1 184.89-16.1 184.89-16.9Q184.89-18.35 183.59-19.07 182.29-19.8 179.89-19.8L179.89-19.8Q178.04-19.8 176.46-19.38 174.89-18.95 173.44-18.1L173.44-18.1 171.49-23.9Q173.39-24.95 175.74-25.43 178.09-25.9 180.44-25.9L180.44-25.9Q186.24-25.9 189.54-23.43 192.84-20.95 192.84-16.8L192.84-16.8 192.84-5.4 195.19-2.55ZM181.24-5.95L181.24-5.95Q183.14-5.95 184.04-7.18 184.94-8.4 184.94-9.65L184.94-9.65 184.94-11.05 181.24-11.05Q179.69-11.05 178.91-10.4 178.14-9.75 178.14-8.6L178.14-8.6Q178.14-7.35 179.01-6.65 179.89-5.95 181.24-5.95ZM224.33-1.8L218.13 3.45 214.08-0.6 214.08-14.2Q214.08-16.25 212.98-17.35 211.88-18.45 209.78-18.45L209.78-18.45Q208.88-18.45 208.08-18.25 207.28-18.05 206.68-17.7L206.68-17.7 206.68 0 198.68 0 198.68-21.55Q200.58-23.45 203.86-24.63 207.13-25.8 210.98-25.8L210.98-25.8Q216.53-25.8 219.31-23.28 222.08-20.75 222.08-16.45L222.08-16.45 222.08-4.35 224.33-1.8ZM255.68-2.25L249.08 2.55 246.03-1.35Q243.53 0.25 239.78 0.25L239.78 0.25Q236.13 0.25 233.33-1.23 230.53-2.7 228.93-5.53 227.33-8.35 227.33-12.35L227.33-12.35Q227.33-16.25 228.83-19.03 230.33-21.8 232.98-23.28 235.63-24.75 239.08-24.75L239.08-24.75Q240.68-24.75 242.48-24.48 244.28-24.2 245.13-23.85L245.13-23.85 245.13-32.5 253.08-32.5 253.08-6 255.68-2.25ZM240.93-6.45L240.93-6.45Q242.58-6.45 243.83-7.48 245.08-8.5 245.08-10.9L245.08-10.9 245.08-17.35Q244.28-17.75 243.11-17.95 241.93-18.15 240.93-18.15L240.93-18.15Q238.63-18.15 237.13-16.78 235.63-15.4 235.63-12.45L235.63-12.45Q235.63-10.3 236.41-8.97 237.18-7.65 238.41-7.05 239.63-6.45 240.93-6.45ZM272.18 0.45L272.18 0.45Q268.03 0.45 265-1.2 261.98-2.85 260.33-5.9 258.68-8.95 258.68-13.1L258.68-13.1Q258.68-19.35 262.3-22.73 265.93-26.1 272.08-26.1L272.08-26.1Q278.23-26.1 281.88-22.7 285.53-19.3 285.53-13L285.53-13Q285.53-8.9 283.93-5.88 282.33-2.85 279.33-1.2 276.33 0.45 272.18 0.45ZM272.18-6.25L272.18-6.25Q274.68-6.25 276-8.1 277.33-9.95 277.33-13L277.33-13Q277.33-16.25 275.9-17.88 274.48-19.5 272.08-19.5L272.08-19.5Q269.68-19.5 268.25-17.88 266.83-16.25 266.83-13.05L266.83-13.05Q266.83-9.95 268.28-8.1 269.73-6.25 272.18-6.25ZM310.52 9.2L302.52 9.2 302.52-22.2Q303.67-23.35 305.8-24.18 307.92-25 310.42-25.45 312.92-25.9 315.17-25.9L315.17-25.9Q321.72-25.9 324.92-22.33 328.12-18.75 328.12-12.85L328.12-12.85Q328.12-8.4 326.45-5.48 324.77-2.55 321.95-1.13 319.12 0.3 315.72 0.3L315.72 0.3Q312.72 0.3 310.52-0.65L310.52-0.65 310.52 9.2ZM314.97-6.55L314.97-6.55Q317.22-6.55 318.52-8.15 319.82-9.75 319.82-12.65L319.82-12.65Q319.82-16 318.2-17.68 316.57-19.35 314.22-19.35L314.22-19.35Q312.27-19.35 310.52-18.55L310.52-18.55 310.52-10.9Q310.52-8.55 311.92-7.55 313.32-6.55 314.97-6.55ZM341.12 0L332.62 0 332.62-21.2Q334.37-23.2 336.95-24.55 339.52-25.9 342.87-25.9L342.87-25.9Q346.97-25.9 350.07-23.8L350.07-23.8 347.97-18.05Q347.22-18.55 346.2-18.8 345.17-19.05 344.32-19.05L344.32-19.05Q343.27-19.05 342.4-18.78 341.52-18.5 341.12-18.15L341.12-18.15 341.12 0ZM364.57 0.45L364.57 0.45Q360.42 0.45 357.39-1.2 354.37-2.85 352.72-5.9 351.07-8.95 351.07-13.1L351.07-13.1Q351.07-19.35 354.69-22.73 358.32-26.1 364.47-26.1L364.47-26.1Q370.62-26.1 374.27-22.7 377.92-19.3 377.92-13L377.92-13Q377.92-8.9 376.32-5.88 374.72-2.85 371.72-1.2 368.72 0.45 364.57 0.45ZM364.57-6.25L364.57-6.25Q367.07-6.25 368.39-8.1 369.72-9.95 369.72-13L369.72-13Q369.72-16.25 368.29-17.88 366.87-19.5 364.47-19.5L364.47-19.5Q362.07-19.5 360.64-17.88 359.22-16.25 359.22-13.05L359.22-13.05Q359.22-9.95 360.67-8.1 362.12-6.25 364.57-6.25ZM394.32 0L386.07 0 386.07-13.3 381.92-13.3 381.92-19.6 386.07-19.6 386.07-22.5Q386.07-25.95 387.49-28.2 388.92-30.45 391.37-31.55 393.82-32.65 396.92-32.65L396.92-32.65Q398.97-32.65 401.42-32.18 403.87-31.7 405.72-30.6L405.72-30.6 403.87-24.75Q402.82-25.4 401.42-25.73 400.02-26.05 398.67-26.05L398.67-26.05Q394.02-26.05 394.02-22.25L394.02-22.25 394.02-19.65 402.32-19.65 402.32-13.3 394.32-13.3 394.32 0ZM416.71 0L408.71 0 408.71-24.1 416.71-24.1 416.71 0ZM412.71-27.2L412.71-27.2Q410.71-27.2 409.46-28.45 408.21-29.7 408.21-31.55L408.21-31.55Q408.21-33.4 409.46-34.65 410.71-35.9 412.71-35.9L412.71-35.9Q414.76-35.9 415.99-34.65 417.21-33.4 417.21-31.55L417.21-31.55Q417.21-29.7 415.99-28.45 414.76-27.2 412.71-27.2ZM432.51 1L432.51 1Q428.71 1 425.54-0.2 422.36-1.4 420.71-2.8L420.71-2.8 423.26-8.15Q424.51-7.2 426.81-6.35 429.11-5.5 431.51-5.5L431.51-5.5Q433.31-5.5 434.16-6.05 435.01-6.6 435.01-7.55L435.01-7.55Q435.01-8.4 434.36-8.8 433.71-9.2 432.41-9.4L432.41-9.4 430.01-9.8Q425.76-10.5 423.46-12.48 421.16-14.45 421.16-17.8L421.16-17.8Q421.16-19.95 422.24-21.75 423.31-23.55 425.59-24.65 427.86-25.75 431.51-25.75L431.51-25.75Q435.11-25.75 437.94-24.83 440.76-23.9 442.16-22.9L442.16-22.9 440.11-17.55Q439.31-18.1 437.99-18.53 436.66-18.95 435.16-19.2 433.66-19.45 432.31-19.45L432.31-19.45Q429.16-19.45 429.16-17.9L429.16-17.9Q429.16-17.15 429.76-16.68 430.36-16.2 431.11-16.1L431.11-16.1 434.16-15.6Q439.21-14.8 441.11-12.85 443.01-10.9 443.01-7.9L443.01-7.9Q443.01-5.55 441.96-3.53 440.91-1.5 438.61-0.25 436.31 1 432.51 1ZM457.81 1L457.81 1Q454.01 1 450.83-0.2 447.66-1.4 446.01-2.8L446.01-2.8 448.56-8.15Q449.81-7.2 452.11-6.35 454.41-5.5 456.81-5.5L456.81-5.5Q458.61-5.5 459.46-6.05 460.31-6.6 460.31-7.55L460.31-7.55Q460.31-8.4 459.66-8.8 459.01-9.2 457.71-9.4L457.71-9.4 455.31-9.8Q451.06-10.5 448.76-12.48 446.46-14.45 446.46-17.8L446.46-17.8Q446.46-19.95 447.53-21.75 448.61-23.55 450.88-24.65 453.16-25.75 456.81-25.75L456.81-25.75Q460.41-25.75 463.23-24.83 466.06-23.9 467.46-22.9L467.46-22.9 465.41-17.55Q464.61-18.1 463.28-18.53 461.96-18.95 460.46-19.2 458.96-19.45 457.61-19.45L457.61-19.45Q454.46-19.45 454.46-17.9L454.46-17.9Q454.46-17.15 455.06-16.68 455.66-16.2 456.41-16.1L456.41-16.1 459.46-15.6Q464.51-14.8 466.41-12.85 468.31-10.9 468.31-7.9L468.31-7.9Q468.31-5.55 467.26-3.53 466.21-1.5 463.91-0.25 461.61 1 457.81 1ZM480.31 0L472.31 0 472.31-24.1 480.31-24.1 480.31 0ZM476.31-27.2L476.31-27.2Q474.31-27.2 473.06-28.45 471.81-29.7 471.81-31.55L471.81-31.55Q471.81-33.4 473.06-34.65 474.31-35.9 476.31-35.9L476.31-35.9Q478.36-35.9 479.58-34.65 480.81-33.4 480.81-31.55L480.81-31.55Q480.81-29.7 479.58-28.45 478.36-27.2 476.31-27.2ZM498.3 0.45L498.3 0.45Q494.15 0.45 491.13-1.2 488.1-2.85 486.45-5.9 484.8-8.95 484.8-13.1L484.8-13.1Q484.8-19.35 488.43-22.73 492.05-26.1 498.2-26.1L498.2-26.1Q504.35-26.1 508-22.7 511.65-19.3 511.65-13L511.65-13Q511.65-8.9 510.05-5.88 508.45-2.85 505.45-1.2 502.45 0.45 498.3 0.45ZM498.3-6.25L498.3-6.25Q500.8-6.25 502.13-8.1 503.45-9.95 503.45-13L503.45-13Q503.45-16.25 502.03-17.88 500.6-19.5 498.2-19.5L498.2-19.5Q495.8-19.5 494.38-17.88 492.95-16.25 492.95-13.05L492.95-13.05Q492.95-9.95 494.4-8.1 495.85-6.25 498.3-6.25ZM541.8-1.8L535.6 3.45 531.55-0.6 531.55-14.2Q531.55-16.25 530.45-17.35 529.35-18.45 527.25-18.45L527.25-18.45Q526.35-18.45 525.55-18.25 524.75-18.05 524.15-17.7L524.15-17.7 524.15 0 516.15 0 516.15-21.55Q518.05-23.45 521.33-24.63 524.6-25.8 528.45-25.8L528.45-25.8Q534-25.8 536.78-23.28 539.55-20.75 539.55-16.45L539.55-16.45 539.55-4.35 541.8-1.8ZM569.85-2.55L563.65 2.6 560.5-1.2Q558.15 0.25 554.65 0.25L554.65 0.25Q550 0.25 547.4-2.18 544.8-4.6 544.8-8.55L544.8-8.55Q544.8-12.15 547-14.13 549.2-16.1 553.4-16.1L553.4-16.1 559.55-16.1 559.55-16.9Q559.55-18.35 558.25-19.07 556.95-19.8 554.55-19.8L554.55-19.8Q552.7-19.8 551.12-19.38 549.55-18.95 548.1-18.1L548.1-18.1 546.15-23.9Q548.05-24.95 550.4-25.43 552.75-25.9 555.1-25.9L555.1-25.9Q560.9-25.9 564.2-23.43 567.5-20.95 567.5-16.8L567.5-16.8 567.5-5.4 569.85-2.55ZM555.9-5.95L555.9-5.95Q557.8-5.95 558.7-7.18 559.6-8.4 559.6-9.65L559.6-9.65 559.6-11.05 555.9-11.05Q554.35-11.05 553.57-10.4 552.8-9.75 552.8-8.6L552.8-8.6Q552.8-7.35 553.67-6.65 554.55-5.95 555.9-5.95ZM581.34 0L573.34 0 573.34-24.1 581.34-24.1 581.34 0ZM577.34-27.2L577.34-27.2Q575.34-27.2 574.09-28.45 572.84-29.7 572.84-31.55L572.84-31.55Q572.84-33.4 574.09-34.65 575.34-35.9 577.34-35.9L577.34-35.9Q579.39-35.9 580.62-34.65 581.84-33.4 581.84-31.55L581.84-31.55Q581.84-29.7 580.62-28.45 579.39-27.2 577.34-27.2ZM597.14 1L597.14 1Q593.34 1 590.17-0.2 586.99-1.4 585.34-2.8L585.34-2.8 587.89-8.15Q589.14-7.2 591.44-6.35 593.74-5.5 596.14-5.5L596.14-5.5Q597.94-5.5 598.79-6.05 599.64-6.6 599.64-7.55L599.64-7.55Q599.64-8.4 598.99-8.8 598.34-9.2 597.04-9.4L597.04-9.4 594.64-9.8Q590.39-10.5 588.09-12.48 585.79-14.45 585.79-17.8L585.79-17.8Q585.79-19.95 586.87-21.75 587.94-23.55 590.22-24.65 592.49-25.75 596.14-25.75L596.14-25.75Q599.74-25.75 602.57-24.83 605.39-23.9 606.79-22.9L606.79-22.9 604.74-17.55Q603.94-18.1 602.62-18.53 601.29-18.95 599.79-19.2 598.29-19.45 596.94-19.45L596.94-19.45Q593.79-19.45 593.79-17.9L593.79-17.9Q593.79-17.15 594.39-16.68 594.99-16.2 595.74-16.1L595.74-16.1 598.79-15.6Q603.84-14.8 605.74-12.85 607.64-10.9 607.64-7.9L607.64-7.9Q607.64-5.55 606.59-3.53 605.54-1.5 603.24-0.25 600.94 1 597.14 1Z" opacity="1" transform="matrix(1,0,0,1,0,0)" fill="#000000" class="slogan-text-1" data-fill-palette-color="secondary" id="text-1"></path></svg></g></svg></g></svg></g></svg></g><g transform="matrix(1,0,0,1,455.9794667052578,0)"><svg viewBox="0 0 215.8051394069986 215.8051394069986" height="215.8051394069986" width="215.8051394069986"><g><svg></svg></g><g id="icon-0"><svg viewBox="0 0 215.8051394069986 215.8051394069986" height="215.8051394069986" width="215.8051394069986"><g><path d="M0 107.903c0-59.593 48.31-107.903 107.903-107.903 59.593 0 107.903 48.31 107.902 107.903 0 59.593-48.31 107.903-107.902 107.902-59.593 0-107.903-48.31-107.903-107.902zM107.903 204.257c53.215 0 96.355-43.14 96.354-96.354 0-53.215-43.14-96.355-96.354-96.355-53.215 0-96.355 43.14-96.355 96.355 0 53.215 43.14 96.355 96.355 96.354z" data-fill-palette-color="accent" fill="#000000" stroke="transparent"></path></g><g transform="matrix(1,0,0,1,56.03793860572819,50.044450339070835)"><svg viewBox="0 0 103.7292621955422 115.71623872885692" height="115.71623872885692" width="103.7292621955422"><g><svg xmlns="http://www.w3.org/2000/svg" xmlns:xlink="http://www.w3.org/1999/xlink" version="1.1" x="0" y="0" viewBox="3.54790641166292 1.0952624903444372 42.942314165526916 47.90473750965556" enable-background="new 0 0 50 50" xml:space="preserve" height="115.71623872885692" width="103.7292621955422" class="icon-cg-0" data-fill-palette-color="accent" id="cg-0"><g fill="#ffffff" data-fill-palette-color="accent"><path fill="#000000" d="M43.4 1.5c-0.4-0.5-1.1-0.5-1.6-0.2-2.2 1.6-3.5 3.5-3.9 5.8-0.4 3 1 5.7 1.7 6.9-1.3 3-5.2 4.5-9.6 6.2-5.8 2.2-12.3 4.6-15.2 11.3-3.3 7.7 0.4 14.3 5.5 16.5 1.7 0.7 3.3 1 4.9 1 4.8 0 8.8-3.1 10.6-7 1-2.2 1.3-4.4 1-6.3-0.1-0.7-0.8-1.1-1.5-1-0.7 0.1-1.1 0.8-1 1.5 0.3 1.3 0 3.1-0.8 4.8-1.5 3.3-6 7.3-12.2 4.7-5.4-2.3-6.2-8.5-4.2-13.2 2.4-5.6 8.2-7.8 13.8-9.9 4.9-1.9 9.6-3.6 11.2-7.8 2.4-1.3 3.9-3 4.3-5.1C47.1 5.5 43.5 1.6 43.4 1.5zM43.8 9.1c-0.2 1.2-1 2.2-2.4 3-0.6-1-1.3-2.8-1.1-4.7 0.2-1.3 0.8-2.4 1.9-3.4C43 5.2 44.2 7.3 43.8 9.1z" data-fill-palette-color="accent"></path><path fill="#000000" d="M9.6 30.4c-1.9-1.1-4.3-0.5-5.5 1.3-1.1 1.9-0.5 4.3 1.3 5.5 0.6 0.4 1.3 0.6 2.1 0.6 0.3 0 0.6 0 1-0.1 1-0.3 1.9-0.9 2.5-1.8v0c0.6-0.9 0.7-2 0.5-3C11.2 31.9 10.5 31 9.6 30.4zM8.8 34.6c-0.2 0.3-0.5 0.6-0.9 0.7-0.4 0.1-0.8 0-1.1-0.2-0.7-0.4-0.9-1.3-0.5-2 0.3-0.5 0.8-0.7 1.3-0.7 0.3 0 0.5 0.1 0.8 0.2 0.3 0.2 0.6 0.5 0.7 0.9C9.1 33.9 9 34.3 8.8 34.6z" data-fill-palette-color="accent"></path><path fill="#000000" d="M29 36.5c-0.9-0.5-1.9-0.7-2.9-0.4-1 0.2-1.9 0.9-2.4 1.8-0.5 0.9-0.7 1.9-0.5 2.9 0.2 1 0.9 1.9 1.8 2.4 0.6 0.4 1.3 0.6 2 0.6 1.3 0 2.6-0.7 3.3-1.9 0.5-0.9 0.7-1.9 0.5-2.9C30.5 37.9 29.9 37 29 36.5zM28.2 40.5C28.2 40.5 28.2 40.5 28.2 40.5c-0.4 0.6-1.2 0.9-1.9 0.5-0.3-0.2-0.5-0.5-0.6-0.8-0.1-0.4 0-0.7 0.2-1 0.2-0.3 0.5-0.5 0.8-0.6 0.1 0 0.2 0 0.3 0 0.2 0 0.5 0.1 0.7 0.2 0.3 0.2 0.5 0.5 0.6 0.8S28.3 40.2 28.2 40.5z" data-fill-palette-color="accent"></path><path fill="#000000" d="M31.9 27c-0.2-0.6-0.7-1-1.3-0.9-8.2 0.5-9.9 5.2-10 5.4-0.1 0.3-0.1 0.7 0.1 1 0.2 0.3 0.5 0.5 0.8 0.6 1.5 0.3 2.9 0.5 4.1 0.5 2.3 0 4-0.6 5.1-1.7C32.6 29.9 31.9 27.1 31.9 27zM28.9 30.1c-0.8 0.9-2.6 1.1-5 0.8 0.9-0.9 2.6-1.9 5.6-2.3C29.5 29.2 29.4 29.7 28.9 30.1z" data-fill-palette-color="accent"></path><path fill="#000000" d="M24.3 21.3c0.2 0.2 0.5 0.3 0.8 0.3 0.1 0 0.2 0 0.3 0 0.4-0.1 0.7-0.3 0.8-0.7 0.1-0.2 2.5-5.5-2.1-12.2-0.2-0.3-0.6-0.5-0.9-0.5-0.4 0-0.8 0.1-1 0.4-0.1 0.1-2.4 2.6-2.1 6C20.2 16.9 21.7 19.2 24.3 21.3zM23 11.7c1.4 2.7 1.5 4.9 1.3 6.3-1.1-1.2-1.7-2.4-1.8-3.7C22.5 13.3 22.7 12.4 23 11.7z" data-fill-palette-color="accent"></path></g></svg></g></svg></g></svg></g></svg></g></svg></g><defs></defs></svg><rect width="395.52" height="127.05746449330377" fill="none" stroke="none" visibility="hidden"></rect></g></svg></g></svg>